<svg width="46" height="44" viewBox="0 0 46 44" fill="none" xmlns="http://www.w3.org/2000/svg">
<path d="M0 11.1842V25.769C0.00318909 28.6691 1.14679 31.4495 3.17991 33.5002C5.21303 35.5509 7.96961 36.7044 10.8449 36.7076H35.3567C35.8317 36.7062 36.3022 36.7998 36.7411 36.9829C37.18 37.1661 37.5786 37.4352 37.9137 37.7747L43.7314 43.6451C43.8435 43.7579 43.9765 43.8473 44.1229 43.9082C44.2693 43.9691 44.4261 44.0003 44.5845 44C44.7424 43.9992 44.8986 43.9678 45.0448 43.9076C45.2652 43.8158 45.4535 43.66 45.5861 43.4601C45.7187 43.2602 45.7894 43.0251 45.7895 42.7846V11.1842C45.7863 8.28409 44.6427 5.50369 42.6096 3.453C40.5764 1.40231 37.8199 0.248822 34.9446 0.245605H10.8449C7.96961 0.248822 5.21303 1.40231 3.17991 3.453C1.14679 5.50369 0.00318909 8.28409 0 11.1842Z" fill="#2A9D8F"/>
</svg>
