<svg width="25" height="25" viewBox="0 0 25 25" fill="none" xmlns="http://www.w3.org/2000/svg">
<path d="M1.14475 0.707107C1.53527 0.316583 2.16843 0.316583 2.55896 0.707107L24.2929 22.441C24.6834 22.8316 24.6834 23.4647 24.2929 23.8553L23.8553 24.2929C23.4647 24.6834 22.8316 24.6834 22.441 24.2929L0.707106 2.55896C0.316582 2.16843 0.316583 1.53527 0.707108 1.14474L1.14475 0.707107Z" fill="#2A9D8F"/>
<path d="M0.707138 23.8553C0.316614 23.4647 0.316613 22.8316 0.707137 22.441L22.4411 0.707105C22.8316 0.31658 23.4648 0.316582 23.8553 0.707106L24.2929 1.14474C24.6834 1.53527 24.6834 2.16843 24.2929 2.55896L2.55899 24.2929C2.16846 24.6834 1.5353 24.6834 1.14478 24.2929L0.707138 23.8553Z" fill="#2A9D8F"/>
</svg>
