<svg width="26" height="25" viewBox="0 0 26 25" fill="none" xmlns="http://www.w3.org/2000/svg">
<path d="M0.974081 23.6594L2.84138 15.0861C2.84138 14.8712 2.94911 14.7127 3.10814 14.5541L16.5127 1.18776C17.5387 0.0163569 20.3242 -0.761171 22.2788 1.18776L24.736 3.638C26.3263 5.22375 26.3263 7.80187 24.736 9.38762L11.3314 22.7539C11.2237 22.8614 11.0647 22.9688 10.8492 23.0199L2.20014 24.9893C1.68201 25.0661 0.707323 24.7387 0.974081 23.6594ZM23.2432 7.89906C24.0435 7.10107 24.0435 5.8734 23.2432 5.07541L20.7859 2.62517C20.0062 1.84764 18.734 1.84764 17.9542 2.62517L5.72441 14.8201H7.11463C7.69944 14.8201 8.18166 15.3009 8.18166 15.8841V17.6386H9.94123C10.526 17.6386 11.0083 18.1195 11.0083 18.7026V20.0377L23.2432 7.89906ZM8.87933 21.2654V19.7717H7.11976C6.19637 19.8587 6.05273 18.9277 6.05273 18.7077V16.9481H4.55478L3.3236 22.5391L8.87933 21.2654Z" fill="#2A9D8F"/>
</svg>
