<svg width="32" height="31" viewBox="0 0 32 31" fill="none" xmlns="http://www.w3.org/2000/svg">
<path d="M15.5484 31C10.7985 31 6.40074 28.8383 3.48416 25.1964C3.13442 24.7597 3.20408 24.1214 3.63975 23.7709C4.07542 23.4203 4.71213 23.4901 5.06187 23.9268C7.59844 27.0942 11.4185 28.972 15.5484 28.972C22.971 28.972 28.9881 22.9404 28.9881 15.5C28.9881 8.05964 22.971 2.02804 15.5484 2.02804C11.3574 2.02803 7.48685 3.96224 4.95398 7.20969C4.60987 7.65088 3.97412 7.72891 3.53398 7.38397C3.09385 7.03904 3.01601 6.40176 3.36011 5.96056C6.27243 2.22662 10.7281 -3.54642e-06 15.5484 -2.70361e-06C24.0883 -1.21045e-06 31.0113 6.93959 31.0113 15.5C31.0113 24.0604 24.0883 31 15.5484 31ZM5.1908 19.902L1.10336 15.7067C0.708312 15.3013 0.700831 14.6515 1.08665 14.2555L5.07859 10.1583C5.46441 9.76229 6.09743 9.76997 6.49248 10.1754C6.88753 10.5809 6.89501 11.2306 6.50919 11.6266L4.17345 14.0252L19.7419 14.0247C20.3006 14.0247 20.7535 14.4787 20.7535 15.0387C20.7535 15.5988 20.3006 16.0527 19.7419 16.0527L4.23537 16.0541L6.58798 18.468C6.98303 18.8734 6.99051 19.5232 6.60469 19.9192C6.21887 20.3152 5.58585 20.3075 5.1908 19.902Z" fill="#F8F8F8"/>
</svg>
