<svg width="435" height="164" viewBox="0 0 435 164" fill="none" xmlns="http://www.w3.org/2000/svg">
<path d="M89.8594 131.664C85.1719 135.695 79.9219 138.789 74.1094 140.945C68.2969 143.102 62.2734 144.18 56.0391 144.18C51.2578 144.18 46.6406 143.547 42.1875 142.281C37.7812 141.062 33.6328 139.328 29.7422 137.078C25.8984 134.781 22.3828 132.039 19.1953 128.852C16.0078 125.664 13.2656 122.148 10.9688 118.305C8.71875 114.414 6.96094 110.266 5.69531 105.859C4.47656 101.406 3.86719 96.7891 3.86719 92.0078C3.86719 87.2266 4.47656 82.6094 5.69531 78.1562C6.96094 73.7031 8.71875 69.5547 10.9688 65.7109C13.2656 61.8203 16.0078 58.2812 19.1953 55.0938C22.3828 51.9063 25.8984 49.1875 29.7422 46.9375C33.6328 44.6406 37.7812 42.8828 42.1875 41.6641C46.6406 40.3984 51.2578 39.7656 56.0391 39.7656C62.2734 39.7656 68.2969 40.8437 74.1094 43C79.9219 45.1094 85.1719 48.2031 89.8594 52.2812L79.1719 69.8594C76.2188 66.6719 72.7266 64.2344 68.6953 62.5469C64.6641 60.8125 60.4453 59.9453 56.0391 59.9453C51.5859 59.9453 47.4141 60.7891 43.5234 62.4766C39.6328 64.1641 36.2344 66.4609 33.3281 69.3672C30.4219 72.2266 28.125 75.625 26.4375 79.5625C24.75 83.4531 23.9062 87.6016 23.9062 92.0078C23.9062 96.4141 24.75 100.562 26.4375 104.453C28.125 108.297 30.4219 111.672 33.3281 114.578C36.2344 117.484 39.6328 119.781 43.5234 121.469C47.4141 123.156 51.5859 124 56.0391 124C60.4453 124 64.6641 123.156 68.6953 121.469C72.7266 119.734 76.2188 117.273 79.1719 114.086L89.8594 131.664ZM283.219 61.3516V101.711H303.398C306.164 101.711 308.766 101.195 311.203 100.164C313.641 99.0859 315.773 97.6328 317.602 95.8047C319.43 93.9766 320.859 91.8438 321.891 89.4062C322.969 86.9219 323.508 84.2969 323.508 81.5312C323.508 78.7656 322.969 76.1641 321.891 73.7266C320.859 71.2422 319.43 69.0859 317.602 67.2578C315.773 65.4297 313.641 64 311.203 62.9688C308.766 61.8906 306.164 61.3516 303.398 61.3516H283.219ZM283.219 142H263.039V41.1719H303.398C307.102 41.1719 310.664 41.6641 314.086 42.6484C317.508 43.5859 320.695 44.9453 323.648 46.7266C326.648 48.4609 329.367 50.5703 331.805 53.0547C334.289 55.4922 336.398 58.2109 338.133 61.2109C339.914 64.2109 341.273 67.4219 342.211 70.8438C343.195 74.2656 343.688 77.8281 343.688 81.5312C343.688 85 343.242 88.375 342.352 91.6562C341.508 94.9375 340.266 98.0547 338.625 101.008C337.031 103.961 335.062 106.68 332.719 109.164C330.375 111.648 327.75 113.805 324.844 115.633L336.023 142H314.578L305.789 121.68L283.219 121.82V142ZM426.094 142H356.977V41.1719H426.094V61.3516H377.156V81.5312H410.273V101.711H377.156V121.82H426.094V142Z" fill="#264653"/>
<path d="M169.5 8.47571C213.384 8.47571 249 43.3131 249 86.2379C249 129.163 213.384 164 169.5 164C125.616 164 90 129.163 90 86.2379C90 43.3131 125.616 8.47571 169.5 8.47571Z" fill="#264653"/>
<path fill-rule="evenodd" clip-rule="evenodd" d="M113.798 72.2606C129.79 96.9581 157.336 111.151 186.003 109.606C198.677 83.3632 196.634 51.9821 180.643 27.2849C151.977 28.83 126.473 46.0168 113.798 72.2606Z" fill="#2A9D8F"/>
<path fill-rule="evenodd" clip-rule="evenodd" d="M171.277 45.4763C155.881 46.5815 142.142 56.0387 135.235 70.2859C143.724 83.4277 158.438 90.8432 173.834 89.7381C180.741 75.4909 179.767 58.6189 171.277 45.4763Z" fill="#264653"/>
</svg>
